<svg xmlns="http://www.w3.org/2000/svg" width="335.641" height="439.867" viewBox="0 0 335.641 439.867">
  <g id="组_88" data-name="组 88" transform="translate(-723 -154.133)">
    <rect id="矩形_79" data-name="矩形 79" width="335.641" height="439.867" rx="21.528" transform="translate(723 154.133)" fill="#0076bf"/>
    <g id="组_78" data-name="组 78" transform="translate(761 327.412)">
      <g id="组_74" data-name="组 74" transform="translate(46.005 0)">
        <path id="路径_36" data-name="路径 36" d="M117.987,133.322v.937h-7.17V124.017h6.952v.934h-5.883v3.643h5.246v.924h-5.246v3.8Z" transform="translate(-110.817 -123.401)" fill="#fff"/>
        <path id="路径_37" data-name="路径 37" d="M126.642,125.843a3.37,3.37,0,0,1,.819,2.458v4.464h-1.03V128.4a2.636,2.636,0,0,0-.571-1.829,2.075,2.075,0,0,0-1.616-.629,2.421,2.421,0,0,0-1.869.739,2.9,2.9,0,0,0-.679,2.042v4.039h-1.03V128.4a2.636,2.636,0,0,0-.571-1.829,2.1,2.1,0,0,0-1.631-.629,2.426,2.426,0,0,0-1.861.739,2.88,2.88,0,0,0-.686,2.042v4.039h-1.03v-7.7h.985v1.4A2.751,2.751,0,0,1,117,125.39a3.544,3.544,0,0,1,1.666-.381,3.232,3.232,0,0,1,1.659.411,2.506,2.506,0,0,1,1.05,1.215,2.983,2.983,0,0,1,1.21-1.193,3.7,3.7,0,0,1,1.8-.433A3.014,3.014,0,0,1,126.642,125.843Z" transform="translate(-104.69 -121.907)" fill="#fff"/>
        <path id="路径_38" data-name="路径 38" d="M126.648,125.763a2.934,2.934,0,0,1,.8,2.232v4.77h-.985v-1.2a2.4,2.4,0,0,1-1.022.937,3.559,3.559,0,0,1-1.6.336,3.1,3.1,0,0,1-2.027-.616,2.123,2.123,0,0,1-.05-3.2,3.4,3.4,0,0,1,2.237-.6h2.418v-.469a1.978,1.978,0,0,0-.551-1.513,2.256,2.256,0,0,0-1.606-.521,4.06,4.06,0,0,0-1.39.243,3.463,3.463,0,0,0-1.145.666l-.463-.777a4.149,4.149,0,0,1,1.39-.769,5.434,5.434,0,0,1,1.709-.271A3.214,3.214,0,0,1,126.648,125.763Zm-1.157,5.853a2.393,2.393,0,0,0,.924-1.162V129.2h-2.388q-1.958,0-1.957,1.375a1.259,1.259,0,0,0,.506,1.06,2.3,2.3,0,0,0,1.421.388A2.7,2.7,0,0,0,125.49,131.616Z" transform="translate(-95.404 -121.907)" fill="#fff"/>
        <path id="路径_39" data-name="路径 39" d="M125.136,125.031a.727.727,0,0,1-.218-.529.7.7,0,0,1,.218-.511.72.72,0,0,1,.536-.22.743.743,0,0,1,.536.213.677.677,0,0,1,.215.5.742.742,0,0,1-.215.544.768.768,0,0,1-1.072,0Zm.015,1.9h1.027v7.7h-1.027Z" transform="translate(-89.59 -123.771)" fill="#fff"/>
        <path id="路径_40" data-name="路径 40" d="M126.855,123.771h1.027v10.858h-1.027Z" transform="translate(-86.674 -123.771)" fill="#fff"/>
        <path id="路径_41" data-name="路径 41" d="M130.59,124.017h1.07v10.242h-1.07Z" transform="translate(-81.052 -123.401)" fill="#fff"/>
        <path id="路径_42" data-name="路径 42" d="M132.625,124.017h4.129a5.989,5.989,0,0,1,2.839.649,4.739,4.739,0,0,1,1.912,1.816,5.516,5.516,0,0,1,0,5.311,4.733,4.733,0,0,1-1.912,1.814,5.99,5.99,0,0,1-2.839.651h-4.129Zm4.069,9.3a4.9,4.9,0,0,0,2.335-.534,3.878,3.878,0,0,0,1.548-1.478,4.556,4.556,0,0,0,0-4.344,3.861,3.861,0,0,0-1.548-1.478,4.9,4.9,0,0,0-2.335-.536h-3v8.37Z" transform="translate(-77.989 -123.401)" fill="#fff"/>
      </g>
      <g id="组_75" data-name="组 75" transform="translate(1.355 63.981)">
        <path id="路径_43" data-name="路径 43" d="M105.963,155.282h-1.1v-1.373a4.6,4.6,0,1,0-9.2,0v1.373h-1.1A1.573,1.573,0,0,0,93,156.848V165.8a1.576,1.576,0,0,0,1.566,1.578h11.4a1.579,1.579,0,0,0,1.581-1.578v-8.952A1.576,1.576,0,0,0,105.963,155.282Zm-8.22-1.373a2.52,2.52,0,1,1,5.041,0v1.373H97.743Zm3.372,9.327v2.287a.172.172,0,0,1-.18.165H99.84a.171.171,0,0,1-.168-.165v-2.287a2.009,2.009,0,1,1,1.443,0Z" transform="translate(-92.995 -149.309)" fill="#fff"/>
      </g>
      <g id="组_76" data-name="组 76" transform="translate(46.005 67.714)">
        <path id="路径_44" data-name="路径 44" d="M117.654,151.981a3.554,3.554,0,0,1,0,5.141,4.567,4.567,0,0,1-3.044.932h-2.723v3.232h-1.07V151.044h3.793A4.555,4.555,0,0,1,117.654,151.981Zm-.769,4.454a2.313,2.313,0,0,0,.8-1.881,2.35,2.35,0,0,0-.8-1.909,3.5,3.5,0,0,0-2.3-.664h-2.7V157.1h2.7A3.5,3.5,0,0,0,116.885,156.435Z" transform="translate(-110.817 -150.43)" fill="#fff"/>
        <path id="路径_45" data-name="路径 45" d="M120.421,152.791a2.924,2.924,0,0,1,.8,2.23v4.77h-.985v-1.2a2.382,2.382,0,0,1-1.022.937,3.559,3.559,0,0,1-1.6.336,3.116,3.116,0,0,1-2.027-.614,2.126,2.126,0,0,1-.05-3.2,3.4,3.4,0,0,1,2.237-.6h2.418v-.469a1.98,1.98,0,0,0-.551-1.516,2.255,2.255,0,0,0-1.606-.519,4.058,4.058,0,0,0-1.39.24,3.463,3.463,0,0,0-1.145.666l-.463-.777a4.1,4.1,0,0,1,1.39-.767,5.363,5.363,0,0,1,1.709-.271A3.2,3.2,0,0,1,120.421,152.791Zm-1.16,5.852a2.379,2.379,0,0,0,.927-1.165v-1.258H117.8q-1.954,0-1.954,1.375a1.26,1.26,0,0,0,.506,1.06,2.3,2.3,0,0,0,1.421.388A2.71,2.71,0,0,0,119.261,158.644Z" transform="translate(-104.778 -148.935)" fill="#fff"/>
        <path id="路径_46" data-name="路径 46" d="M119.685,159.593a3.754,3.754,0,0,1-1.323-.681l.463-.817a3.931,3.931,0,0,0,1.2.621,4.739,4.739,0,0,0,1.506.24,2.858,2.858,0,0,0,1.541-.328,1.052,1.052,0,0,0,.5-.93.834.834,0,0,0-.276-.666,1.831,1.831,0,0,0-.694-.366,9.972,9.972,0,0,0-1.115-.24,13.136,13.136,0,0,1-1.493-.358,2.223,2.223,0,0,1-.965-.621,1.748,1.748,0,0,1-.4-1.215,1.906,1.906,0,0,1,.794-1.581,3.546,3.546,0,0,1,2.217-.614,5.774,5.774,0,0,1,1.478.2,4.115,4.115,0,0,1,1.215.521l-.448.834a3.817,3.817,0,0,0-2.245-.659,2.6,2.6,0,0,0-1.486.351,1.084,1.084,0,0,0-.5.922.917.917,0,0,0,.281.7,1.72,1.72,0,0,0,.7.388,10.671,10.671,0,0,0,1.16.256,14.045,14.045,0,0,1,1.463.351,2.175,2.175,0,0,1,.942.6,1.662,1.662,0,0,1,.388,1.17,1.866,1.866,0,0,1-.832,1.6,3.943,3.943,0,0,1-2.31.591A5.812,5.812,0,0,1,119.685,159.593Z" transform="translate(-99.459 -148.935)" fill="#fff"/>
        <path id="路径_47" data-name="路径 47" d="M122.8,159.593a3.768,3.768,0,0,1-1.325-.681l.464-.817a3.931,3.931,0,0,0,1.2.621,4.739,4.739,0,0,0,1.506.24,2.874,2.874,0,0,0,1.543-.328,1.05,1.05,0,0,0,.5-.93.84.84,0,0,0-.273-.666,1.842,1.842,0,0,0-.7-.366,9.968,9.968,0,0,0-1.115-.24,13.274,13.274,0,0,1-1.493-.358,2.223,2.223,0,0,1-.965-.621,1.748,1.748,0,0,1-.4-1.215,1.909,1.909,0,0,1,.8-1.581,3.538,3.538,0,0,1,2.215-.614,5.76,5.76,0,0,1,1.478.2,4.1,4.1,0,0,1,1.218.521l-.451.834a3.817,3.817,0,0,0-2.245-.659,2.582,2.582,0,0,0-1.483.351,1.081,1.081,0,0,0-.5.922.91.91,0,0,0,.283.7,1.71,1.71,0,0,0,.7.388,10.67,10.67,0,0,0,1.16.256,13.89,13.89,0,0,1,1.463.351,2.176,2.176,0,0,1,.942.6,1.663,1.663,0,0,1,.391,1.17,1.868,1.868,0,0,1-.834,1.6,3.943,3.943,0,0,1-2.31.591A5.8,5.8,0,0,1,122.8,159.593Z" transform="translate(-94.769 -148.935)" fill="#fff"/>
        <path id="路径_48" data-name="路径 48" d="M136.934,152.06l-2.884,7.7h-.97l-2.405-6.306-2.4,6.306H127.3l-2.869-7.7h.987l2.39,6.541,2.448-6.541h.882l2.433,6.541,2.42-6.541Z" transform="translate(-90.322 -148.901)" fill="#fff"/>
        <path id="路径_49" data-name="路径 49" d="M131.835,159.36a3.653,3.653,0,0,1-1.39-1.4,4.263,4.263,0,0,1,0-4.039,3.577,3.577,0,0,1,1.39-1.388,4.2,4.2,0,0,1,3.968,0,3.558,3.558,0,0,1,1.383,1.388,4.319,4.319,0,0,1,0,4.039,3.634,3.634,0,0,1-1.383,1.4,4.161,4.161,0,0,1-3.968,0Zm3.44-.792a2.6,2.6,0,0,0,1.007-1.06,3.578,3.578,0,0,0,0-3.132,2.6,2.6,0,0,0-1.007-1.06,3.025,3.025,0,0,0-2.911,0,2.62,2.62,0,0,0-1.015,1.06,3.492,3.492,0,0,0,0,3.132,2.62,2.62,0,0,0,1.015,1.06,3.025,3.025,0,0,0,2.911,0Z" transform="translate(-82.037 -148.935)" fill="#fff"/>
        <path id="路径_50" data-name="路径 50" d="M136.221,152.43a3.663,3.663,0,0,1,1.774-.393v1.01l-.246-.015a2.415,2.415,0,0,0-1.884.747,2.992,2.992,0,0,0-.681,2.092v3.921h-1.027v-7.7h.985V153.6A2.509,2.509,0,0,1,136.221,152.43Z" transform="translate(-75.683 -148.935)" fill="#fff"/>
        <path id="路径_51" data-name="路径 51" d="M144.1,150.8v10.856h-.985v-1.521a3.176,3.176,0,0,1-1.225,1.185,3.56,3.56,0,0,1-1.716.408,3.848,3.848,0,0,1-1.942-.5,3.582,3.582,0,0,1-1.363-1.39,4.46,4.46,0,0,1,0-4.069,3.506,3.506,0,0,1,1.363-1.38,3.87,3.87,0,0,1,1.942-.491,3.559,3.559,0,0,1,1.674.388,3.168,3.168,0,0,1,1.223,1.132V150.8Zm-2.4,9.633a2.63,2.63,0,0,0,1.012-1.06,3.492,3.492,0,0,0,0-3.132,2.63,2.63,0,0,0-1.012-1.06,3,3,0,0,0-2.9,0,2.63,2.63,0,0,0-1.012,1.06,3.492,3.492,0,0,0,0,3.132,2.63,2.63,0,0,0,1.012,1.06,3,3,0,0,0,2.9,0Z" transform="translate(-72.332 -150.799)" fill="#fff"/>
      </g>
      <g id="组_77" data-name="组 77" transform="translate(0.959 1.736)">
        <path id="路径_52" data-name="路径 52" d="M99.875,129.572l-6.627-5.108h13.276Z" transform="translate(-92.218 -124.464)" fill="#fff"/>
        <path id="路径_53" data-name="路径 53" d="M98.2,128.814l-5.359,4.371v-8.5Z" transform="translate(-92.837 -124.133)" fill="#fff"/>
        <path id="路径_54" data-name="路径 54" d="M98.484,126.633l1.43,1.1,1.507-1.159,5.236,4.348H93.221Z" transform="translate(-92.259 -121.284)" fill="#fff"/>
        <path id="路径_55" data-name="路径 55" d="M96.84,128.763l5.312-4.08v8.491Z" transform="translate(-86.811 -124.135)" fill="#fff"/>
      </g>
      <rect id="矩形_80" data-name="矩形 80" width="259.782" height="1" transform="translate(0 20.942)" fill="#fff"/>
      <rect id="矩形_81" data-name="矩形 81" width="259.782" height="1" transform="translate(0 92.045)" fill="#fff"/>
    </g>
    <g id="组_84" data-name="组 84" transform="translate(761 447.807)">
      <rect id="矩形_82" data-name="矩形 82" width="20.628" height="20.628" transform="translate(0 0)" fill="#fff" opacity="0.5"/>
      <path id="路径_59" data-name="路径 59" d="M92.655,188.527,87.723,183.6l2.129-2.129,2.8,2.8,8.805-8.806,2.129,2.129Z" transform="translate(-85.59 -171.999)" fill="#fff"/>
      <g id="组_82" data-name="组 82" transform="translate(37.38 3.117)">
        <path id="路径_60" data-name="路径 60" d="M104.739,187.68l-2.746-3.9a8.26,8.26,0,0,1-.959.052H97.813v3.845H96.542V175.558h4.492a5.39,5.39,0,0,1,3.6,1.111,3.792,3.792,0,0,1,1.3,3.046,3.982,3.982,0,0,1-.711,2.4,3.917,3.917,0,0,1-2.034,1.411l2.934,4.157Zm-1.011-5.731a3.146,3.146,0,0,0,0-4.492,4.143,4.143,0,0,0-2.726-.787H97.813v6.075H101A4.121,4.121,0,0,0,103.728,181.949Z" transform="translate(-96.542 -174.835)" fill="#fff"/>
        <path id="路径_61" data-name="路径 61" d="M108.155,181.3h-7.542a3.264,3.264,0,0,0,1.079,2.294,3.563,3.563,0,0,0,2.47.875,3.8,3.8,0,0,0,1.539-.3,3.39,3.39,0,0,0,1.219-.891l.687.8a3.868,3.868,0,0,1-1.5,1.107,5.024,5.024,0,0,1-1.982.384,4.943,4.943,0,0,1-2.458-.6,4.29,4.29,0,0,1-1.675-1.651,4.77,4.77,0,0,1-.6-2.39,4.905,4.905,0,0,1,.576-2.39,4.22,4.22,0,0,1,1.575-1.647,4.39,4.39,0,0,1,2.254-.588,4.33,4.33,0,0,1,2.246.588,4.2,4.2,0,0,1,1.563,1.639,4.966,4.966,0,0,1,.564,2.4Zm-6.539-3.109a3.32,3.32,0,0,0-1,2.194h6.395a3.32,3.32,0,0,0-1-2.194,3.079,3.079,0,0,0-2.206-.839A3.042,3.042,0,0,0,101.616,178.189Z" transform="translate(-87.995 -172.626)" fill="#fff"/>
        <path id="路径_62" data-name="路径 62" d="M116.164,177.282a3.985,3.985,0,0,1,.971,2.91v5.28h-1.219v-5.16a3.114,3.114,0,0,0-.675-2.166,2.457,2.457,0,0,0-1.91-.743,2.863,2.863,0,0,0-2.214.875,3.433,3.433,0,0,0-.8,2.414v4.78h-1.219v-5.16a3.113,3.113,0,0,0-.675-2.166,2.479,2.479,0,0,0-1.93-.743,2.866,2.866,0,0,0-2.2.875,3.4,3.4,0,0,0-.815,2.414v4.78h-1.215v-9.109h1.167v1.663a3.3,3.3,0,0,1,1.335-1.283,4.223,4.223,0,0,1,1.97-.448,3.876,3.876,0,0,1,1.966.484,3,3,0,0,1,1.243,1.439,3.5,3.5,0,0,1,1.431-1.411,4.367,4.367,0,0,1,2.134-.512A3.552,3.552,0,0,1,116.164,177.282Z" transform="translate(-79.422 -172.626)" fill="#fff"/>
        <path id="路径_63" data-name="路径 63" d="M115.387,181.3h-7.542a3.28,3.28,0,0,0,1.079,2.294,3.57,3.57,0,0,0,2.47.875,3.824,3.824,0,0,0,1.543-.3,3.425,3.425,0,0,0,1.219-.891l.683.8a3.81,3.81,0,0,1-1.5,1.107,5.01,5.01,0,0,1-1.982.384,4.954,4.954,0,0,1-2.458-.6,4.279,4.279,0,0,1-1.671-1.651,4.77,4.77,0,0,1-.6-2.39,4.948,4.948,0,0,1,.572-2.39,4.23,4.23,0,0,1,1.579-1.647,4.6,4.6,0,0,1,4.5,0,4.158,4.158,0,0,1,1.559,1.639,4.922,4.922,0,0,1,.568,2.4Zm-6.539-3.109a3.32,3.32,0,0,0-1,2.194h6.395a3.3,3.3,0,0,0-1-2.194,3.288,3.288,0,0,0-4.388,0Z" transform="translate(-66.311 -172.626)" fill="#fff"/>
        <path id="路径_64" data-name="路径 64" d="M123.4,177.282a3.985,3.985,0,0,1,.971,2.91v5.28h-1.219v-5.16a3.133,3.133,0,0,0-.675-2.166,2.458,2.458,0,0,0-1.91-.743,2.863,2.863,0,0,0-2.214.875,3.433,3.433,0,0,0-.8,2.414v4.78h-1.219v-5.16a3.133,3.133,0,0,0-.675-2.166,2.479,2.479,0,0,0-1.93-.743,2.866,2.866,0,0,0-2.2.875,3.4,3.4,0,0,0-.815,2.414v4.78H109.49v-9.109h1.167v1.663a3.3,3.3,0,0,1,1.335-1.283,4.223,4.223,0,0,1,1.97-.448,3.85,3.85,0,0,1,1.962.484,2.957,2.957,0,0,1,1.243,1.439,3.55,3.55,0,0,1,1.431-1.411,4.394,4.394,0,0,1,2.138-.512A3.558,3.558,0,0,1,123.4,177.282Z" transform="translate(-57.741 -172.626)" fill="#fff"/>
        <path id="路径_65" data-name="路径 65" d="M121.025,179.625a4.142,4.142,0,0,1,1.611,1.635,5.26,5.26,0,0,1,0,4.816,4.2,4.2,0,0,1-1.611,1.647,4.542,4.542,0,0,1-2.3.588,4.2,4.2,0,0,1-2.03-.488,3.693,3.693,0,0,1-1.447-1.4v1.8h-1.167V175.377H115.3v5.467a3.774,3.774,0,0,1,1.447-1.339,4.2,4.2,0,0,1,1.978-.46A4.578,4.578,0,0,1,121.025,179.625Zm-.667,7.15a3.1,3.1,0,0,0,1.207-1.255,4.123,4.123,0,0,0,0-3.7,3.1,3.1,0,0,0-1.207-1.255,3.579,3.579,0,0,0-3.437,0,3.13,3.13,0,0,0-1.2,1.255,4.123,4.123,0,0,0,0,3.7,3.131,3.131,0,0,0,1.2,1.255,3.551,3.551,0,0,0,3.437,0Z" transform="translate(-43.977 -175.377)" fill="#fff"/>
        <path id="路径_66" data-name="路径 66" d="M125.567,181.3h-7.542a3.264,3.264,0,0,0,1.079,2.294,3.563,3.563,0,0,0,2.47.875,3.838,3.838,0,0,0,1.543-.3,3.411,3.411,0,0,0,1.215-.891l.687.8a3.81,3.81,0,0,1-1.5,1.107,5.024,5.024,0,0,1-1.982.384,4.953,4.953,0,0,1-2.458-.6,4.29,4.29,0,0,1-1.675-1.651,4.77,4.77,0,0,1-.6-2.39,4.905,4.905,0,0,1,.575-2.39,4.23,4.23,0,0,1,1.579-1.647,4.6,4.6,0,0,1,4.5,0,4.186,4.186,0,0,1,1.559,1.639,4.965,4.965,0,0,1,.564,2.4Zm-6.539-3.109a3.32,3.32,0,0,0-1,2.194h6.395a3.32,3.32,0,0,0-1-2.194,3.076,3.076,0,0,0-2.2-.839A3.045,3.045,0,0,0,119.028,178.189Z" transform="translate(-35.817 -172.626)" fill="#fff"/>
        <path id="路径_67" data-name="路径 67" d="M122.109,176.763a4.315,4.315,0,0,1,2.1-.468v1.195l-.292-.016a2.853,2.853,0,0,0-2.23.883,3.538,3.538,0,0,0-.8,2.474v4.64h-1.219v-9.109h1.167v1.783A2.98,2.98,0,0,1,122.109,176.763Z" transform="translate(-27.243 -172.626)" fill="#fff"/>
        <path id="路径_68" data-name="路径 68" d="M136.506,177.282a4,4,0,0,1,.967,2.91v5.28h-1.219v-5.16a3.114,3.114,0,0,0-.675-2.166,2.452,2.452,0,0,0-1.91-.743,2.848,2.848,0,0,0-2.21.875,3.416,3.416,0,0,0-.807,2.414v4.78h-1.219v-5.16a3.114,3.114,0,0,0-.675-2.166,2.476,2.476,0,0,0-1.926-.743,2.869,2.869,0,0,0-2.206.875,3.418,3.418,0,0,0-.811,2.414v4.78H122.6v-9.109h1.163v1.663a3.3,3.3,0,0,1,1.335-1.283,4.252,4.252,0,0,1,1.974-.448,3.861,3.861,0,0,1,1.962.484,2.977,2.977,0,0,1,1.243,1.439,3.5,3.5,0,0,1,1.431-1.411,4.389,4.389,0,0,1,2.134-.512A3.562,3.562,0,0,1,136.506,177.282Z" transform="translate(-18.463 -172.626)" fill="#fff"/>
        <path id="路径_69" data-name="路径 69" d="M135.727,181.3h-7.538a3.264,3.264,0,0,0,1.079,2.294,3.553,3.553,0,0,0,2.466.875,3.81,3.81,0,0,0,1.543-.3,3.425,3.425,0,0,0,1.219-.891l.683.8a3.811,3.811,0,0,1-1.5,1.107,5.327,5.327,0,0,1-4.44-.216,4.305,4.305,0,0,1-1.671-1.651,4.769,4.769,0,0,1-.6-2.39,4.9,4.9,0,0,1,.576-2.39,4.192,4.192,0,0,1,1.575-1.647,4.39,4.39,0,0,1,2.254-.588,4.33,4.33,0,0,1,2.246.588,4.158,4.158,0,0,1,1.559,1.639,4.923,4.923,0,0,1,.568,2.4Zm-6.535-3.109a3.3,3.3,0,0,0-1,2.194h6.391a3.3,3.3,0,0,0-1-2.194,3.282,3.282,0,0,0-4.384,0Z" transform="translate(-5.358 -172.626)" fill="#fff"/>
      </g>
    </g>
    <g id="组_86" data-name="组 86" transform="translate(752 492.433)" opacity="0.52">
      <path id="路径_90" data-name="路径 90" d="M5.973,0H270.9a5.973,5.973,0,0,1,5.973,5.973V39.68a5.973,5.973,0,0,1-5.973,5.973H5.973A5.973,5.973,0,0,1,0,39.68V5.973A5.973,5.973,0,0,1,5.973,0Z" transform="translate(0 0)" fill="aqua"/>
    </g>
    <g id="组_87" data-name="组 87" transform="translate(563.514 -1759.88)">
      <text id="智博引擎" transform="translate(294.897 2013.81)" fill="aqua" font-size="36" font-family="MRazorHK-Xbold, MRazor HK Xbold" font-weight="700"><tspan x="0" y="0">智博</tspan><tspan y="0" fill="#fff">引擎</tspan></text>
      <text id="ZhiBo_Engine_" data-name="ZhiBo Engine
" transform="translate(298.259 2031.947)" fill="#fff" font-size="13" font-family="MRazorHK-Xbold, MRazor HK Xbold" font-weight="700" letter-spacing="0.3em"><tspan x="0" y="0">ZhiBo Engine</tspan><tspan font-family="MRazorHK-Xbold"><tspan x="0" y="15"></tspan></tspan></text>
      <path id="路径_10" data-name="路径 10" d="M260.889,2009.451c-2.244-7.348-4.43-15.215-7.058-22.4-2.043-5.58-5.049-9.591-11.613-9.182-9.217.571-10.111,8.594-12.568,15.653-4.221,12.121-8.963,24.524-12.765,36.739-.259.833-.723,1.688-.057,2.415l.428-.314,17.387-.075c.215-.073.379-.566.457-.78.429-1.158,2.36-8.749,2.842-9.039,2.4-.062,4.846-.12,7.252-.065.295.008.556.124.856.135.472.014,1.11-.314,1.673.062.679.455,2.463,8.764,3.432,9.96l36.7-.128-.017-11.057-.1-.149-3.895.077c-.112-.031-.19-.566-.2-.69-.413-5.043.119-10.97.128-16.077.006-3.429-.121-6.869-.135-10.271,0-1.011.013-2.025,0-3.036h3.53c.149,0,.959-.385.918-.672l-.112-12.2-4.213-.124v1.856l2.229.247v8.538a26.9,26.9,0,0,0-4.255.017l-.149.1c-.073,4.876-.084,9.786-.059,14.674a9.787,9.787,0,0,1,.134.979l.086,22.062c.242.519,1.366.177,1.926.3,1.377.308,1.613,2.486,1.127,3.569-1.251.054-2.59-.1-3.83-.012-.841.057-1.725.329-2.59.381-3.13.189-6.455-.154-9.605-.005v-42.068H264.82v-8.662l8.835.006c.379-.088.136-1.657.083-1.984h-10.9l-.1,12.409c.356,1.227,3.913.011,4.066.666l-.13,29.736h-2.353C263.16,2017.194,262.067,2013.308,260.889,2009.451Zm-8.022,21c-.437,0-.758-.986-.9-1.329-1.134-2.806-1.662-5.867-2.878-8.632-2.992-.141-5.991-.022-8.985-.055a12.909,12.909,0,0,0-3.332,0c-.452.1-.652.773-.814,1.167-.883,2.137-1.328,4.633-2.069,6.84-.487,1.447-.33,2-2.073,2.136a21.3,21.3,0,0,1-4.285-.182c-.131-.1-.105-.237-.122-.373a20.188,20.188,0,0,1,.2-4.639l7.115-7.244v-15.219c-.5-.425-.69-.206-.743.37l-.026,14.7-7.157,7.2v5.258h-2.6v-6.99c1.314-1.627,2.93-3.2,4.138-4.9.153-.214.841-1.139.692-1.35-.5-.225-.866.275-1.179.617-1.516,1.658-2.816,3.746-4.395,5.383v7.238h-4.583c3.392-9.861,6.957-19.665,10.406-29.506,1.569-4.475,2.933-9.046,4.578-13.491,1.553-4.2,3.487-7.354,8.487-7.606,6.2-.311,8.442,4.486,10.185,9.495,2.779,7.992,5.114,16.408,7.677,24.5.553,1.746,1.41,3.611,1.807,5.372a5.109,5.109,0,0,1-.046,2.385c-.219,2.847.175,5.975.006,8.851Zm22.608-2.406c.04-11.557-.053-23.1-.127-34.647,1.719-2.276,4.479-4.173,6.253-6.373a1.676,1.676,0,0,0,.555-1.609c-2.5,2.55-5.27,4.864-7.551,7.612-.111,10.972.17,21.961-.009,32.9a9.215,9.215,0,0,0,.257,3.087c-2.007,1.108.853,2.485.981.99.048-.554-.158-.888-.737-.919Zm4.675-29.973c.636-2.794-3.135-2.711-3.2-.594-.028.864.588,1.264,1.255,1.63,0,.487-.017.976,0,1.462.224,9.132-.164,18.419-.006,27.6.038.425.054.784.561.8.263.01.16,0,.188-.185a36.689,36.689,0,0,0-.006-3.721c.142-5.3.175-10.641.135-15.961-.022-3.046-.35-6.222-.135-9.279.016-.23-.007-.6.16-.769C279.356,1998.791,280,1998.74,280.151,1998.076Zm-8.891-4.245v35.024H272V1993.83Zm-1.12-10.324c-.392.175-1.112-.372-1.914.181-2.052,1.412.509,4.039,2.125,2.432.773-.769.182-1.661.347-2.058.072-.172.9-.873,1.12-1.115l1.174-1.486C271.7,1981.21,270.924,1983.159,270.14,1983.506Zm8.491,45.56a.82.82,0,1,0,.82.82A.82.82,0,0,0,278.631,2029.066Zm-7.311.016c-1.492.555.087,2.157.9,1.345C272.7,2029.948,272.133,2028.78,271.32,2029.082Zm-23.028-17.439c-.471-2.822-1.67-6.584-2.431-9.448a76.771,76.771,0,0,0-2.186-7.838c-.212-.542-.291-1.156-.97-1.258-1.466-.224-1.558,1.109-1.877,2.194-1.217,4.139-2.246,8.67-3.2,12.892a38.626,38.626,0,0,0-.8,4.081l11.515.127A2.708,2.708,0,0,0,248.292,2011.643Zm-7.1-9.548,1.278-4.551,1.3,4.825c-.125-.039-.264.125-.311.125a15.66,15.66,0,0,1-2.106,0A.33.33,0,0,1,241.188,2002.1Zm-.382,2.639,3.273-.021.2.08,1.348,5.372h-6.192Zm17.452,15.513c-2.1-1.97-4.467-3.715-6.568-5.687a14.275,14.275,0,0,1-1.212-1.264l-.089-18.965-5.1-4.926-5.3-.149c-.385-.073-.542-.988-1.169-1.182-1.971-.612-3.081,2.013-1.5,2.859,1.406.755,1.793-.242,2.8-.932l4.8.022,4.853,4.679-.037,18.967q2.839,2.544,5.671,5.1c1.475,1.323,3.369,2.483,4.236,4.307l.6,1.568C260.524,2022.535,259.661,2021.565,258.258,2020.246Zm-5.874-30.5c-.12-.453-2.067-1.85-2.551-2.282-.778-.694-2.853-2.926-3.774-3.036a32.407,32.407,0,0,1-3.326-.017c-.149-.051-.439-.583-.71-.775a1.535,1.535,0,0,0-1.84,2.457c1.185.829,1.933-.05,2.549-1.023l3.258.048,6.321,5.253C252.3,1990.158,252.439,1989.959,252.384,1989.745Zm6.285,38.463c2.183-1.352-.457-4.356-2.229-2.535A1.7,1.7,0,0,0,258.669,2028.208Zm-24.934-25.778a1.621,1.621,0,1,0,.089-3A1.57,1.57,0,0,0,233.735,2002.43Zm8.854,16.158a1.585,1.585,0,1,0-.591-3.074C240.355,2015.853,240.579,2018.626,242.589,2018.588Zm-12.567-2.3a1.472,1.472,0,1,0-1.028-2.759C227.09,2013.93,227.421,2016.967,230.022,2016.293Zm1.664,11.45c2.53.132,2.21-3.355-.34-2.826A1.426,1.426,0,0,0,231.687,2027.743Z" transform="translate(0 4.932)" fill="#fff"/>
      <g id="组_24" data-name="组 24" transform="translate(217.77 1955.711)">
        <g id="组_23" data-name="组 23">
          <path id="路径_11" data-name="路径 11" d="M279.824,1976.179c-.011-.534-.258-.948-.073-1.548.154-.5.909-.812,1.363-.988,3.1-1.2,7.683-1.789,10.533-3.211,1.656-.825.571-1.358-.528-1.826-7.911-3.36-16.511-6.22-24.583-9.342-6.528-2.524-10.077-5.074-17.371-2.446-3.418,1.231-6.882,2.859-10.308,4.178-6.964,2.68-14.076,5.111-20.906,8.067a1.047,1.047,0,0,0-.271,1.338c.525.135,1.032.334,1.552.489a87.685,87.685,0,0,0,8.666,2.23c.9.159,1.87.264,2.409-.624.339-.556.418-1.535.712-1.979a8.7,8.7,0,0,1,1.18-.833,84.1,84.1,0,0,1,13.937-7.481c11.436-4.5,18.1.022,27.7,5.483a30.543,30.543,0,0,1,3.95,2.364c.509.607.079,1.018.05,1.674-.132,2.964.033,5.938-.125,8.908-.026.484.132,1.83-.117,2.109-.121.137-.787.36-1.054.555-2.476,1.818-1.941,6.05,1.2,6.718a3.594,3.594,0,0,0,2.106-6.866C279.757,1980.83,279.871,1978.5,279.824,1976.179Z" transform="translate(-217.536 -1955.711)" fill="aqua"/>
          <path id="路径_12" data-name="路径 12" d="M271.31,1971.057c-3.547-2.189-10.451-5.993-14.379-6.916-7.406-1.741-12.761.637-19.1,3.982-1.11.586-6.5,3.459-6.868,4.274a3.377,3.377,0,0,0-.064,1.109,7.131,7.131,0,0,1,1.636.284c5.119,1.366,10.181,3.092,15.329,4.359a15.83,15.83,0,0,0,5.016.677c6.187-1.441,12.293-3.333,18.392-5.133a16.654,16.654,0,0,1,1.982-.434C273.152,1972.181,272.149,1971.576,271.31,1971.057Z" transform="translate(-214.562 -1953.963)" fill="aqua"/>
        </g>
      </g>
    </g>
    <text id="登_入" data-name="登  入" transform="translate(867 522.259)" fill="#fff" font-size="18" font-family="YuGothicUI-Regular, Yu Gothic UI"><tspan x="0" y="0">登</tspan><tspan y="0" xml:space="preserve" font-family="SegoeUI, Segoe UI">  </tspan><tspan y="0">入</tspan></text>
  </g>
</svg>
